<mxfile host="4815ad53-4915-4a66-85cd-b4e2e5be0662" modified="2020-09-30T17:10:20.529Z" agent="5.0 (Windows NT 10.0; Win64; x64) AppleWebKit/537.36 (KHTML, like Gecko) Code/1.49.2 Chrome/83.0.4103.122 Electron/9.2.1 Safari/537.36" etag="tVdVhfCF3EwQ3KtU2ubL" version="13.1.3">
    <diagram id="za1W-FppHv6Gn7zF37Ky" name="Page-1">
        <mxGraphModel dx="1194" dy="476" grid="1" gridSize="10" guides="1" tooltips="1" connect="1" arrows="1" fold="1" page="1" pageScale="1" pageWidth="827" pageHeight="1169" math="0" shadow="0">
            <root>
                <mxCell id="0"/>
                <mxCell id="1" parent="0"/>
                <mxCell id="tom4cpQf2VWERMIzIW8y-7" style="edgeStyle=orthogonalEdgeStyle;rounded=0;orthogonalLoop=1;jettySize=auto;html=1;entryX=0;entryY=0.5;entryDx=0;entryDy=0;endArrow=diamond;endFill=1;" parent="1" source="tom4cpQf2VWERMIzIW8y-1" target="tom4cpQf2VWERMIzIW8y-2" edge="1">
                    <mxGeometry relative="1" as="geometry"/>
                </mxCell>
                <mxCell id="tom4cpQf2VWERMIzIW8y-12" style="edgeStyle=orthogonalEdgeStyle;rounded=0;orthogonalLoop=1;jettySize=auto;html=1;exitX=0.75;exitY=1;exitDx=0;exitDy=0;entryX=0.75;entryY=0;entryDx=0;entryDy=0;endArrow=diamond;endFill=1;" parent="1" source="tom4cpQf2VWERMIzIW8y-1" target="tom4cpQf2VWERMIzIW8y-4" edge="1">
                    <mxGeometry relative="1" as="geometry"/>
                </mxCell>
                <mxCell id="tom4cpQf2VWERMIzIW8y-16" style="edgeStyle=orthogonalEdgeStyle;rounded=0;orthogonalLoop=1;jettySize=auto;html=1;exitX=0.75;exitY=0;exitDx=0;exitDy=0;entryX=0.75;entryY=1;entryDx=0;entryDy=0;endArrow=diamond;endFill=1;" parent="1" source="tom4cpQf2VWERMIzIW8y-1" target="tom4cpQf2VWERMIzIW8y-6" edge="1">
                    <mxGeometry relative="1" as="geometry"/>
                </mxCell>
                <mxCell id="tom4cpQf2VWERMIzIW8y-1" value="Posts" style="html=1;" parent="1" vertex="1">
                    <mxGeometry x="370" y="190" width="110" height="50" as="geometry"/>
                </mxCell>
                <mxCell id="tom4cpQf2VWERMIzIW8y-2" value="Comments" style="html=1;" parent="1" vertex="1">
                    <mxGeometry x="580" y="190" width="110" height="50" as="geometry"/>
                </mxCell>
                <mxCell id="tom4cpQf2VWERMIzIW8y-3" value="Auth" style="html=1;" parent="1" vertex="1">
                    <mxGeometry x="580" y="320" width="110" height="50" as="geometry"/>
                </mxCell>
                <mxCell id="tom4cpQf2VWERMIzIW8y-17" style="edgeStyle=orthogonalEdgeStyle;rounded=0;orthogonalLoop=1;jettySize=auto;html=1;entryX=0.5;entryY=1;entryDx=0;entryDy=0;endArrow=diamond;endFill=1;" parent="1" source="tom4cpQf2VWERMIzIW8y-4" target="tom4cpQf2VWERMIzIW8y-1" edge="1">
                    <mxGeometry relative="1" as="geometry"/>
                </mxCell>
                <mxCell id="tom4cpQf2VWERMIzIW8y-18" style="edgeStyle=orthogonalEdgeStyle;rounded=0;orthogonalLoop=1;jettySize=auto;html=1;endArrow=none;endFill=0;" parent="1" source="tom4cpQf2VWERMIzIW8y-4" target="tom4cpQf2VWERMIzIW8y-3" edge="1">
                    <mxGeometry relative="1" as="geometry"/>
                </mxCell>
                <mxCell id="tom4cpQf2VWERMIzIW8y-4" value="SocialNetworks" style="html=1;" parent="1" vertex="1">
                    <mxGeometry x="370" y="320" width="110" height="50" as="geometry"/>
                </mxCell>
                <mxCell id="tom4cpQf2VWERMIzIW8y-10" style="edgeStyle=orthogonalEdgeStyle;rounded=0;orthogonalLoop=1;jettySize=auto;html=1;entryX=0.5;entryY=0;entryDx=0;entryDy=0;endArrow=diamond;endFill=1;" parent="1" source="tom4cpQf2VWERMIzIW8y-5" target="tom4cpQf2VWERMIzIW8y-2" edge="1">
                    <mxGeometry relative="1" as="geometry"/>
                </mxCell>
                <mxCell id="tom4cpQf2VWERMIzIW8y-5" value="Users" style="html=1;" parent="1" vertex="1">
                    <mxGeometry x="580" y="60" width="110" height="50" as="geometry"/>
                </mxCell>
                <mxCell id="tom4cpQf2VWERMIzIW8y-15" style="edgeStyle=orthogonalEdgeStyle;rounded=0;orthogonalLoop=1;jettySize=auto;html=1;endArrow=diamond;endFill=1;" parent="1" source="tom4cpQf2VWERMIzIW8y-6" edge="1">
                    <mxGeometry relative="1" as="geometry">
                        <mxPoint x="425" y="180" as="targetPoint"/>
                    </mxGeometry>
                </mxCell>
                <mxCell id="tom4cpQf2VWERMIzIW8y-6" value="Schedules" style="html=1;" parent="1" vertex="1">
                    <mxGeometry x="370" y="60" width="110" height="50" as="geometry"/>
                </mxCell>
                <mxCell id="2" value="CustomEndpoints" style="html=1;" vertex="1" parent="1">
                    <mxGeometry x="470" y="420" width="110" height="50" as="geometry"/>
                </mxCell>
            </root>
        </mxGraphModel>
    </diagram>
</mxfile>